<?xml version="1.0" standalone="no"?>
<!DOCTYPE svg PUBLIC "-//W3C//DTD SVG 20010904//EN"
 "http://www.w3.org/TR/2001/REC-SVG-20010904/DTD/svg10.dtd">
<svg version="1.0" xmlns="http://www.w3.org/2000/svg"
 width="700.000000pt" height="700.000000pt" viewBox="0 0 700.000000 700.000000"
 preserveAspectRatio="xMidYMid meet">
<metadata>
Created by potrace 1.14, written by Peter Selinger 2001-2017
</metadata>
<g transform="translate(0.000000,700.000000) scale(0.100000,-0.100000)"
fill="#000000" stroke="none">
<path d="M3220 5804 c-437 -31 -785 -94 -1115 -201 -741 -242 -1349 -659
-1684 -1157 -145 -214 -239 -440 -297 -706 -28 -130 -26 -438 4 -577 54 -251
177 -508 344 -721 60 -77 256 -282 270 -282 4 0 -28 58 -71 129 -127 210 -200
405 -240 641 -67 397 -13 786 155 1110 67 130 131 215 258 347 338 352 757
592 1299 747 84 24 172 47 197 51 54 8 58 11 -125 -98 -294 -176 -525 -358
-764 -602 -185 -190 -266 -301 -361 -490 -113 -226 -171 -435 -190 -687 -30
-400 91 -850 313 -1165 76 -108 253 -292 367 -383 331 -264 748 -440 1203
-509 999 -152 1994 -3 2804 419 273 143 472 282 665 468 331 319 526 651 609
1038 27 124 37 408 20 522 -68 434 -303 847 -676 1185 -130 117 -251 206 -432
315 -525 318 -1122 513 -1798 588 -133 14 -634 26 -755 18z m-22 -185 c77 -38
139 -106 252 -274 48 -72 93 -135 101 -141 8 -7 34 -15 59 -19 191 -30 581
-135 890 -241 293 -100 432 -156 479 -193 22 -17 80 -85 130 -150 50 -65 111
-137 137 -160 65 -57 213 -156 449 -301 271 -166 390 -253 523 -387 120 -120
154 -174 167 -264 14 -93 -28 -227 -111 -352 -78 -120 -196 -200 -594 -405
-242 -124 -545 -264 -774 -357 -72 -30 -131 -59 -131 -66 0 -6 9 -17 20 -24
17 -11 62 2 340 99 176 62 405 145 509 184 105 39 191 70 194 68 12 -13 -160
-381 -226 -481 -49 -76 -109 -130 -181 -163 -47 -22 -74 -27 -161 -30 -92 -3
-165 6 -590 73 -267 42 -498 77 -515 77 -16 1 -174 -37 -350 -85 -538 -144
-691 -171 -990 -171 -192 0 -203 1 -282 27 -147 49 -284 161 -345 281 -35 69
-67 175 -79 261 -18 135 -13 140 51 60 153 -191 427 -338 730 -391 206 -36
527 -35 800 1 356 48 452 73 815 213 328 126 780 342 893 427 73 55 142 144
174 223 33 83 33 249 0 344 -71 205 -279 398 -613 572 -219 113 -533 199 -792
215 l-98 6 296 133 c163 74 305 132 316 130 50 -7 87 -108 68 -184 -6 -21 -11
-45 -12 -53 -1 -10 40 -24 148 -51 357 -88 666 -251 876 -459 118 -117 181
-206 206 -291 18 -62 22 -168 9 -249 -8 -53 -8 -53 15 -46 48 13 134 81 171
134 21 30 52 90 70 135 75 193 29 290 -239 506 -150 121 -245 185 -573 389
-135 84 -258 165 -273 179 -16 15 -57 63 -92 108 -124 158 -177 191 -352 220
-218 35 -775 2 -1133 -66 -340 -66 -701 -204 -960 -369 -67 -42 -96 -56 -98
-46 -6 28 59 382 103 563 94 385 205 665 306 776 94 103 160 119 267 65z"/>
<path d="M3036 5487 c-103 -111 -236 -455 -301 -782 -32 -159 -39 -215 -29
-215 5 0 29 32 53 71 164 267 394 498 594 600 l58 30 -23 38 c-45 77 -139 199
-179 235 -73 67 -125 73 -173 23z"/>
<path d="M6395 1868 c-66 -36 -105 -96 -105 -162 0 -79 40 -143 107 -172 60
-26 146 -11 197 34 28 25 56 91 56 135 0 67 -52 143 -113 166 -36 14 -116 14
-142 -1z m156 -41 c125 -83 64 -277 -87 -277 -46 0 -94 28 -128 72 -25 35 -27
112 -2 153 44 75 146 100 217 52z"/>
<path d="M6380 1801 c0 -5 7 -11 15 -15 22 -8 21 -133 -2 -158 -15 -17 -14
-18 32 -18 40 0 46 2 36 14 -7 8 -11 27 -9 43 l3 28 30 -42 c24 -35 36 -43 62
-43 l32 0 -34 38 c-41 43 -41 46 -15 72 49 49 9 90 -87 90 -35 0 -63 -4 -63
-9z m118 -40 c4 -23 -11 -41 -35 -41 -8 0 -13 14 -13 36 0 31 3 35 23 32 14
-2 23 -11 25 -27z"/>
</g>
</svg>
